<?xml version="1.0" encoding="utf-8"?>
<!-- Generator: Adobe Illustrator 26.0.0, SVG Export Plug-In . SVG Version: 6.00 Build 0)  -->
<svg version="1.1" id="Capa_1" xmlns="http://www.w3.org/2000/svg" xmlns:xlink="http://www.w3.org/1999/xlink" x="0px" y="0px"
	 viewBox="0 0 200 200" style="enable-background:new 0 0 200 200;" xml:space="preserve">
<style type="text/css">
	.st0{fill:none;stroke:#1D1D1B;stroke-width:5;stroke-miterlimit:10;}
</style>
<g>
	<path class="st0" d="M103.6,106.9c0.2-17,0.1-34,0.1-51.9c-2.8,0-5.5,0-8.1,0c0,0,0-0.1,0-0.1H80.1L49.2,85.8L19.9,56.5
		c-0.1-0.1-0.1-0.1-0.2-0.2C12.9,52.5,6,57.3,6,63.7v16l27.9,27.9c0,13.5,0,26.6,0,39.7c0,5.5,1.9,8.2,5.6,8.2c7.1,0,14.2,0,21.4,0
		c4,0,5.7-3.1,5.7-8.9c0-13.5,0-27,0-41l11.6-11.6c0,3.7,0,7.5,0,11.2c0,14.4,0,28.8,0,43.2c0,3.8,0.7,6.9,5.3,6.9
		c7.5,0.1,15,0.3,22.4-0.2c1.7-0.1,4.6-2.7,4.7-4.2c0.4-11.9,0.2-23.8,0.2-35.9C104.7,115,103.5,111.8,103.6,106.9z"/>
	<path class="st0" d="M196,132.9c0-23.6,0.1-47.2-0.1-70.8c0-2.3-2-6.4-3.3-6.5c-7.1-0.7-14.4-0.3-21.9-0.3
		c0,17.6-0.1,34.4,0.1,51.2c0.1,5.1-1,8.5-7.3,8.5c0,11.9,0,23.2,0,34.4c0,4.3,2.1,6,6.3,5.9c6.7-0.1,13.5-0.1,20.2,0
		c4.3,0.1,6.2-1.9,6.2-6.1C195.9,143.7,196,138.3,196,132.9z"/>
	<path class="st0" d="M153.4,115c-5.9,0-7.1-3.2-7.1-8.1c0.2-15.2,0.1-30.3,0.1-45.5c0-2,0-3.9,0-5.9c-6.6,0-12.3,0-18.5,0
		c0,17-0.1,33.7,0.1,50.3c0,5.2-0.2,9.6-7.2,9.2c0,12,0,23.4,0,34.9c0,3.7,1.9,5.5,5.6,5.5c7.1,0,14.2,0,21.4,0c4,0,5.7-2,5.7-5.9
		C153.4,138.1,153.4,126.9,153.4,115z"/>
</g>
</svg>
